# xmcd
#
# Track frame offsets:
#	150
#	16572
#	39790
#	64772
#	83955
#	110295
#	138532
#
# Disc length: 2135 seconds
#
# Revision: 1
# Processed by: cddbd v1.5.1PL0 Copyright (c) Steve Scherf et al.
# Submitted via: CDex 1.50Beta5
#
DISCID=4b085507
DTITLE=Eiko Hiraiwa - VESTA
DYEAR=1900
DGENRE=J-POP
TTITLE0=絵はがき
TTITLE1=夏の香水
TTITLE2=雨のストーリー
TTITLE3=林檎
TTITLE4=クレール
TTITLE5=さかな
TTITLE6=宝島
EXTD=
EXTT0=
EXTT1=
EXTT2=
EXTT3=
EXTT4=
EXTT5=
EXTT6=
PLAYORDER=
